# xmcd
#
# Track frame offsets:
#	150
#	17093
#	37549
#	57345
#	73046
#	91738
#	114733
#	126500
#	147222
#	168903
#	204717
#	223608
#	236408
#
# Disc length: 3271
#
# Revision: 2
# Processed by: cddbd v1.5.1PL0 Copyright (c) Steve Scherf et al.
# Submitted via: ExactAudioCopy v0.90a11
# Normalized: r0:DSETVAR1,TDELIM( - ),TSWAP
#
DISCID=b40cc50d
DTITLE=Various Artist - Strawberry Love Ballads
DYEAR=1900
DGENRE=
TTITLE0=10cc - I'm not in Love
TTITLE1=Dramatics - In The Rain
TTITLE2=John Stewart - Gold
TTITLE3=Will Dowing and Mica Paris - Where is The Love
TTITLE4=Etta James - Damn Your Eyes
TTITLE5=Atlanta Rythm Section - Imaginary Lover
TTITLE6=Marianne Faithfull - As Tears Go By
TTITLE7=Elvin Bishop - Fooled Around and Fell In Love
TTITLE8=Elkie Brooks - Fool if You Think Its Over
TTITLE9=Jon and Vangelis - State of Indipendence
TTITLE10=Sam Brown - Your Love Is All
TTITLE11=Dusty Springfield - You Don't Have To Say You Love Me
TTITLE12=Mindbenders - A Groovy Kind Of Love
EXTD=
EXTT0=
EXTT1=
EXTT2=
EXTT3=
EXTT4=
EXTT5=
EXTT6=
EXTT7=
EXTT8=
EXTT9=
EXTT10=
EXTT11=
EXTT12=
PLAYORDER=
